<?xml version="1.0" encoding="UTF-8" standalone="no"?>
<svg
   xmlns:dc="http://purl.org/dc/elements/1.1/"
   xmlns:cc="http://creativecommons.org/ns#"
   xmlns:rdf="http://www.w3.org/1999/02/22-rdf-syntax-ns#"
   xmlns:svg="http://www.w3.org/2000/svg"
   xmlns="http://www.w3.org/2000/svg"
   xmlns:sodipodi="http://sodipodi.sourceforge.net/DTD/sodipodi-0.dtd"
   xmlns:inkscape="http://www.inkscape.org/namespaces/inkscape"
   width="210mm"
   height="297mm"
   viewBox="0 0 210 297"
   version="1.1"
   id="svg8"
   inkscape:version="1.0.2-2 (e86c870879, 2021-01-15)"
   sodipodi:docname="logo.svg">
  <defs
     id="defs2">
    <rect
       x="7.4835467"
       y="113.00156"
       width="66.229389"
       height="16.83798"
       id="rect910" />
    <inkscape:path-effect
       effect="bspline"
       id="path-effect878"
       is_visible="true"
       lpeversion="1"
       weight="33.333333"
       steps="2"
       helper_size="0"
       apply_no_weight="true"
       apply_with_weight="true"
       only_selected="false" />
    <inkscape:path-effect
       effect="bspline"
       id="path-effect865"
       is_visible="true"
       lpeversion="1"
       weight="33.333333"
       steps="2"
       helper_size="0"
       apply_no_weight="true"
       apply_with_weight="true"
       only_selected="false" />
    <inkscape:path-effect
       effect="bspline"
       id="path-effect861"
       is_visible="true"
       lpeversion="1"
       weight="33.333333"
       steps="2"
       helper_size="0"
       apply_no_weight="true"
       apply_with_weight="true"
       only_selected="false" />
    <inkscape:path-effect
       effect="bspline"
       id="path-effect857"
       is_visible="true"
       lpeversion="1"
       weight="33.333333"
       steps="2"
       helper_size="0"
       apply_no_weight="true"
       apply_with_weight="true"
       only_selected="false" />
  </defs>
  <sodipodi:namedview
     id="base"
     pagecolor="#ffffff"
     bordercolor="#666666"
     borderopacity="1.0"
     inkscape:pageopacity="0.0"
     inkscape:pageshadow="2"
     inkscape:zoom="0.35355339"
     inkscape:cx="265.08373"
     inkscape:cy="335.04702"
     inkscape:document-units="mm"
     inkscape:current-layer="layer1"
     inkscape:document-rotation="0"
     showgrid="false"
     inkscape:window-width="1920"
     inkscape:window-height="1001"
     inkscape:window-x="-9"
     inkscape:window-y="-9"
     inkscape:window-maximized="1" />
  <metadata
     id="metadata5">
    <rdf:RDF>
      <cc:Work
         rdf:about="">
        <dc:format>image/svg+xml</dc:format>
        <dc:type
           rdf:resource="http://purl.org/dc/dcmitype/StillImage" />
        <dc:title></dc:title>
      </cc:Work>
    </rdf:RDF>
  </metadata>
  <g
     inkscape:label="Layer 1"
     inkscape:groupmode="layer"
     id="layer1">
    <g
       id="g923"
       transform="matrix(2.4557967,0,0,2.4557967,164.41022,-28.570815)"
       inkscape:export-xdpi="96"
       inkscape:export-ydpi="96">
      <g
         id="g906"
         transform="translate(-6.1858415)">
        <path
           style="fill:#a2c344;fill-opacity:1;stroke:#00ff00;stroke-width:0.2;stroke-miterlimit:4;stroke-dasharray:none;stroke-opacity:1"
           d="m -23.48564,58.453966 c -5.933405,-3.010291 -10.383078,-4.742886 -15.639343,-6.089591 -2.679277,-0.686456 -7.319333,-1.486228 -8.63541,-1.488422 -1.608539,-0.0027 -0.185221,-0.378981 4.115948,-1.088181 14.767711,-2.434984 33.552678,-2.189276 49.4360912,0.646626 l 2.9913315,0.534085 -1.4946206,0.142428 c -9.5961887,0.914448 -18.4291131,3.699904 -24.9620751,7.871775 -1.07374,0.685678 -2.041921,1.242319 -2.15152,1.236983 -0.109593,-0.0053 -1.756775,-0.799905 -3.660402,-1.765703 z"
           id="path884" />
        <path
           style="fill:#a2c344;fill-opacity:1;stroke:#00ff00;stroke-width:0.2;stroke-miterlimit:4;stroke-dasharray:none;stroke-opacity:1"
           d="m -34.667357,89.03609 c -3.21282,-1.436979 -4.18951,-2.077993 -6.348809,-4.16678 -3.152715,-3.049767 -4.585325,-5.375841 -6.015043,-9.766387 -0.911778,-2.799996 -1.064461,-3.71738 -1.432325,-8.606078 -0.480964,-6.391746 -1.089932,-9.405017 -2.444175,-12.094189 l -0.665877,-1.322253 1.181629,0.127096 c 6.371074,0.685263 13.326546,2.612498 18.650921,5.167839 2.394092,1.149003 7.661386,4.41235 8.232394,5.10037 0.1726,0.20797 0.0088,0.527338 -0.801664,1.563163 -1.398807,1.787734 -3.830481,5.544035 -4.494988,6.943574 -0.301892,0.635826 -0.617572,1.156047 -0.701511,1.156047 -0.08394,0 -1.352354,-1.151766 -2.818701,-2.559479 -4.064678,-3.902143 -7.249758,-6.106564 -7.249758,-5.017613 0,0.154347 0.07851,0.280633 0.174479,0.280633 0.09596,0 0.230942,0.177884 0.299945,0.395298 0.06901,0.217416 1.281631,1.922261 2.694723,3.788547 2.954407,3.901916 4.970129,6.773498 5.224698,7.443065 0.127204,0.334571 0.05235,1.063041 -0.26756,2.603934 -0.778999,3.752149 -0.967869,7.288136 -0.511497,9.576189 0.05644,0.282972 0.02895,0.510598 -0.06108,0.505836 -0.09004,-0.0048 -1.280644,-0.508228 -2.645796,-1.118812 z"
           id="path886" />
        <path
           style="fill:#a2c344;fill-opacity:1;stroke:#00ff00;stroke-width:0.2;stroke-miterlimit:4;stroke-dasharray:none;stroke-opacity:1"
           d="m -26.853235,96.349864 c -1.399789,-0.265959 -2.719956,-0.855848 -4.364911,-1.950363 -2.415029,-1.606905 -2.516116,-1.877351 -0.499395,-1.336093 2.431224,0.652502 5.253744,0.907666 10.009243,0.904859 4.673634,-0.0028 7.315313,-0.222403 10.881076,-0.904727 2.0065209,-0.383958 2.0862372,-0.37339 1.5461592,0.204984 -0.7977422,0.854313 -3.2207012,2.321266 -4.4746382,2.709124 -1.069332,0.330758 -1.875608,0.385101 -6.735194,0.453959 -3.036242,0.04302 -5.899295,0.0062 -6.36234,-0.08174 z"
           id="path890" />
        <path
           style="fill:#a2c344;fill-opacity:1;stroke:#00ff00;stroke-width:0.2;stroke-miterlimit:4;stroke-dasharray:none;stroke-opacity:1"
           d="m -21.521209,44.450619 c -1.792473,-0.593974 -2.883477,-1.530975 -3.62953,-3.117202 -1.025052,-2.179418 -0.486307,-4.988764 1.286639,-6.709349 2.250189,-2.183736 6.293525,-1.979803 8.348589,0.421076 2.444901,2.856317 1.494554,7.353469 -1.905479,9.01695 -1.205124,0.589613 -2.984548,0.758227 -4.100219,0.388525 z"
           id="path894" />
        <path
           style="fill:#5d914b;fill-opacity:1;stroke:#00ff00;stroke-width:0.2;stroke-miterlimit:4;stroke-dasharray:none;stroke-opacity:1"
           d="m -16.189183,90.647873 c 0,-0.369832 1.626558,-4.123967 2.803763,-6.47115 2.180207,-4.347027 4.4716967,-7.949094 8.3312849,-13.096208 4.3321472,-5.777317 4.45686384,-5.986838 3.5636729,-5.986838 -1.3324682,0 -7.4168661,5.257713 -10.8980918,9.41737 -1.694426,2.024639 -5.092399,7.138943 -7.167748,10.788208 -2.667857,4.691126 -3.382391,5.423636 -5.291741,5.424871 -2.881892,0.0019 -3.82252,-1.754859 -3.343997,-6.245283 0.66879,-6.275924 2.97279,-12.086182 6.387232,-16.10741 1.519783,-1.789866 4.557004,-4.748508 5.990071,-5.835099 4.753057,-3.60389 11.4036743,-6.449526 18.8956873,-8.085003 2.5727501,-0.56162 6.351553,-1.172448 6.8483559,-1.107006 l 0.4274898,0.05631 -0.6515284,1.473464 C 8.4653031,57.678322 8.023404,59.940872 7.3824905,66.766894 6.7974095,72.998247 6.2163342,75.49199 4.6006561,78.705413 c -2.0198318,4.01725 -6.1415797,8.001695 -10.2328502,9.891982 -3.2670062,1.509448 -10.5569889,2.925379 -10.5569889,2.050478 z"
           id="path896" />
        <path
           style="fill:#5d914b;fill-opacity:1;stroke:#00ff00;stroke-width:0.2;stroke-miterlimit:4;stroke-dasharray:none;stroke-opacity:1"
           d="M 2.0519646,46.820587 C -0.0660091,46.749565 -6.1312697,46.17562 -6.4277989,46.018161 -6.607951,45.922498 -6.0843485,45.004386 -4.5111175,42.657344 -0.93007211,37.31492 2.9568263,32.489695 6.3335288,29.194712 l 1.7988174,-1.755283 v -1.82481 c 0,-1.631722 0.055166,-1.930998 0.5213667,-2.828387 1.1722894,-2.256538 4.1028091,-3.204972 6.3541061,-2.056446 0.813202,0.414865 1.92283,1.561492 2.395323,2.475191 0.528326,1.021667 0.566449,2.558819 0.09088,3.664304 -0.488662,1.135928 -0.848341,1.496026 -2.751254,2.754474 l -1.439629,0.952063 -1.326023,2.99342 c -1.657729,3.742221 -2.5342007,5.370239 -4.4821478,8.325445 -1.4701096,2.230284 -3.6537714,5.067133 -3.852754,5.005207 -0.051448,-0.01601 -0.7670614,-0.0517 -1.5902516,-0.0793 z"
           id="path898" />
      </g>
      <text
         xml:space="preserve"
         id="text908"
         style="font-style:normal;font-variant:normal;font-weight:normal;font-stretch:normal;font-size:11.4992px;line-height:1.25;font-family:'Arial Rounded MT Bold';-inkscape-font-specification:'Arial Rounded MT Bold, Normal';font-variant-ligatures:normal;font-variant-caps:normal;font-variant-numeric:normal;font-variant-east-asian:normal;white-space:pre;shape-inside:url(#rect910);fill:#5d914b;fill-opacity:1;stroke:none;stroke-width:1;stroke-miterlimit:4;stroke-dasharray:none;"
         transform="matrix(2.0500324,0,0,2.0500324,-70.386203,-133.06645)"><tspan
           x="7.484375"
           y="123.36455"><tspan
             style="font-style:normal;font-variant:normal;font-weight:normal;font-stretch:normal;font-size:11.4992px;font-family:'Arial Rounded MT Bold';-inkscape-font-specification:'Arial Rounded MT Bold, Normal';font-variant-ligatures:normal;font-variant-caps:normal;font-variant-numeric:normal;font-variant-east-asian:normal;fill:#5d914b;fill-opacity:1;stroke-width:1;stroke-miterlimit:4;stroke-dasharray:none">OCK</tspan></tspan></text>
    </g>
  </g>
</svg>
